<svg width="351" height="103" viewBox="0 0 351 103" fill="none" xmlns="http://www.w3.org/2000/svg">
<rect x="30.3398" y="-0.00012207" width="40.4512" height="10.1128" fill="#406AFF"></rect>
<rect x="0.00195312" y="10.1127" width="30.3384" height="10.1128" fill="#406AFF"></rect>
<path d="M0.00195091 61.688L0.00197394 20.2256L10.1147 20.2256L10.1147 61.6657L0.00195091 61.688Z" fill="#406AFF"></path>
<path d="M60.6777 10.1127H70.7905V67.6261H60.6777V10.1127Z" fill="#406AFF"></path>
<path d="M30.3398 20.2255H50.5654V56.0247L30.3398 67.5533V20.2255Z" fill="#406AFF"></path>
<path fill-rule="evenodd" clip-rule="evenodd" d="M30.3398 90.9815L70.7917 67.6266L65.7353 58.8687L30.3398 79.3042V90.9815Z" fill="#406AFF"></path>
<path fill-rule="evenodd" clip-rule="evenodd" d="M30.3613 79.2507L-0.000455856 61.7213L5.05594 52.9634L30.3613 67.5735V79.2507Z" fill="#406AFF"></path>
<path d="M97.945 80V11.4H107.451V71.18H139.987V80H97.945ZM146.498 80V31.882H155.612V80H146.498ZM146.204 22.376V12.87H156.004V22.376H146.204ZM186.252 102.246C173.708 102.246 164.986 96.366 164.3 84.998H173.708C174.688 91.956 178.804 94.21 186.252 94.21C195.66 94.21 198.992 89.506 198.992 78.922V73.434C194.876 78.53 190.662 80.49 184.39 80.49C171.454 80.49 162.928 70.788 162.928 55.696C162.928 40.604 171.454 30.804 184.39 30.804C190.858 30.804 195.17 33.058 199.384 38.056V31.882H208.106V78.628C208.106 93.23 201.834 102.246 186.252 102.246ZM171.944 55.696C171.944 66.574 177.04 72.258 185.566 72.258C194.19 72.258 199.188 66.574 199.188 55.696C199.188 44.72 194.19 39.036 185.566 39.036C177.04 39.036 171.944 44.72 171.944 55.696ZM238.355 81.078C224.831 81.078 215.423 71.18 215.423 55.892C215.423 39.232 225.517 30.804 238.061 30.804C251.095 30.804 259.327 40.702 259.327 54.422V57.656H224.733C225.223 68.044 230.711 73.042 238.355 73.042C244.333 73.042 247.665 70.886 249.723 65.986H259.131C255.603 76.766 247.371 81.078 238.355 81.078ZM225.027 50.796H249.821C249.233 42.564 245.019 38.644 238.061 38.644C231.103 38.644 226.301 42.466 225.027 50.796ZM266.85 80V31.882H275.572V40.016C278.218 34.136 282.824 31.392 288.312 31.392C289.292 31.392 290.566 31.49 291.546 31.784V40.408C290.076 40.212 289.292 40.114 288.018 40.114C279.884 40.114 275.964 45.798 275.964 57.068V80H266.85ZM316.546 81.078C302.826 81.078 293.712 71.18 293.712 55.892C293.712 40.702 302.826 30.804 316.546 30.804C330.266 30.804 339.282 40.702 339.282 55.892C339.282 71.18 330.266 81.078 316.546 81.078ZM302.924 55.892C302.924 66.966 307.922 72.846 316.546 72.846C325.072 72.846 330.07 66.966 330.07 55.892C330.07 44.818 325.072 39.036 316.546 39.036C307.922 39.036 302.924 44.818 302.924 55.892Z" fill="black"></path>
</svg>